<?xml version="1.0" encoding="utf-8"?>
<!-- Generator: Adobe Illustrator 21.0.2, SVG Export Plug-In . SVG Version: 6.00 Build 0)  -->
<svg version="1.1" id="Logo" xmlns="http://www.w3.org/2000/svg" xmlns:xlink="http://www.w3.org/1999/xlink" x="0px" y="0px"
	 viewBox="0 0 700 160" style="enable-background:new 0 0 700 160;" xml:space="preserve">
<style type="text/css">
	.st0{fill:#FFFFFF;stroke:#000000;stroke-width:8.8818;stroke-miterlimit:10;}
	.st1{fill:#FEF100;}
	.st2{fill:#FEAD00;}
	.st3{fill:#FEFEFE;}
</style>
<path id="border_1_" class="st0" d="M685.2,155H14.8c-5.4,0-9.8-5.2-9.8-11.5v-127C5,10.2,9.5,5,14.8,5h670.4
	c5.4,0,9.8,5.2,9.8,11.5v126.9C695,149.8,690.5,155,685.2,155z"/>
<g id="text">
	<path id="s" d="M638,134.2c-6.1,0-11.6-1.4-16.8-4.2c-5.4-3-9.5-7.1-12.1-12.3c-2-4-3-8.8-3-14.2c0-1.2,0.4-2.2,1.3-3
		c0.8-0.8,1.9-1.3,3-1.3h11.8c2,0,3.4,0.9,4.2,2.8c0.5,1.1,0.9,2.9,1.1,5.4c0.2,2,1.3,3.5,3.1,4.5c2.1,1,5.4,1.6,9.8,1.6
		c8.4,0,12.6-2.9,12.6-8.7c0-3.5-3.3-7.6-10-12.2l-21.4-14.7c-8.3-5.7-12.5-13.4-12.5-22.9c0-6.4,1.9-12.1,5.8-17.2
		c5.2-6.9,13.4-10.3,24.8-10.3c8.1,0,14.6,1.4,19.7,4.2c6.4,3.6,9.7,9.3,9.7,17v5.4c0,1.2-0.4,2.2-1.3,3c-0.8,0.8-1.9,1.3-3,1.3
		h-10.5c-2.9,0-4.3-2.2-4.3-6.6c0-2.1-0.9-3.7-2.8-4.9c-1.7-1-3.8-1.5-6.2-1.5h-3.2c-2.8,0-5,0.7-6.8,2.2c-1.9,1.6-2.8,3.7-2.8,6.3
		c0,2.8,1.7,5.5,5.2,8.2c3.3,2.5,7.9,5.8,13.7,9.7c6.7,4.5,11.4,7.7,13.9,9.5c4.6,3.4,7.8,6.8,9.5,10.2s2.6,8,2.6,13.8
		c0,8.8-3.8,16-11.4,21.6C654.8,131.7,646.9,134.2,638,134.2z"/>
	<path id="r" d="M599.6,130.2c0,1.6-0.9,2.4-2.7,2.4h-11.2c-2.3,0-4.1-1.2-5.4-3.5l-19.9-37.3c-1.5-2.8-2.2-4.6-2.2-5.5V69.9
		c0-2.3,1.2-3.5,3.5-3.5h10.2c2,0,3.4-0.5,4.2-1.5c0.7-0.8,1-2.3,1-4.4v-14c0-1-0.3-1.8-1-2.5s-1.5-1-2.5-1h-16.7
		c-2.3,0-3.5,1.3-3.5,3.8v82.3c0,0.9-0.3,1.7-1,2.4s-1.5,1-2.4,1h-11.8c-0.9,0-1.7-0.3-2.4-1s-1-1.5-1-2.4V31.5c0-0.9,0.3-1.7,1-2.4
		c0.7-0.7,1.5-1,2.4-1h46c2.9,0,5.5,1.1,7.6,3.2s3.2,4.6,3.2,7.6v25c0,4.3-2.1,7.6-6.3,9.9l-13.4,7.1c-0.9,0.5-1.3,1-1.3,1.7
		c0,0.4,0.1,0.8,0.4,1.3l24.7,44C599.4,128.6,599.6,129.4,599.6,130.2z"/>
	<path id="u" d="M521.5,129.1c0,2.3-1.2,3.5-3.5,3.5h-10.5c-2.3,0-3.5-1.2-3.5-3.5v-3.5c0-0.7-0.1-1-0.4-1s-0.7,0.3-1.1,1
		c-3.5,5-10.7,7.5-21.6,7.5c-8.7,0-15.2-3.4-19.5-10.1c-2.3-3.6-3.5-9.3-3.5-17.2V31.5c0-2.3,1.2-3.5,3.5-3.5h11.8
		c2.3,0,3.5,1.2,3.5,3.5v71.4c0,7.4,3.8,11.2,11.4,11.2c5.2,0,9.1-1.8,11.7-5.4c2-2.7,3-5.9,3-9.7V31.5c0-2.3,1.2-3.5,3.5-3.5H518
		c2.3,0,3.5,1.2,3.5,3.5V129.1z"/>
	<path id="o" d="M417.4,133.9h-5.6c-8.7,0-16.1-4.8-22-14.5c-5.2-8.4-7.7-17.2-7.7-26.5V77c0-12.4,2.6-23.4,7.8-33.2
		c6.4-12,15.3-18,26.6-18c10.2,0,18.3,6.3,24.2,19c4.7,10,7,20.8,7,32.3V93c0,9.3-2.7,18.2-7.9,26.6
		C433.7,129.1,426.3,133.9,417.4,133.9z M430,86.3V77c0-6.2-1.2-12.6-3.5-19.2c-3-8.6-7-12.8-12-12.8c-4.8,0-8.6,4.3-11.4,13
		c-2.2,6.6-3.3,12.9-3.3,19v9.3c0,6.3,0.9,11.7,2.8,16.2c2.6,6.1,6.6,9.2,11.9,9.2c5.6,0,9.8-3,12.5-9C429,98.2,430,92.7,430,86.3z"
		/>
	<path id="t" d="M370.9,43.9c0,2.3-1.2,3.5-3.5,3.5h-14.9c-2.3,0-3.5,1.2-3.5,3.5v78.2c0,2.3-1.2,3.5-3.5,3.5l-11.7,0.1
		c-2.3,0-3.5-1.2-3.5-3.5V50.9c0-2.3-1.2-3.5-3.5-3.5H312c-2.3,0-3.5-1.2-3.5-3.5V31.5c0-2.3,1.2-3.5,3.5-3.5h55.4
		c2.3,0,3.5,1.2,3.5,3.5V43.9z"/>
	<path id="b" d="M255.8,101.7c0,11.8-2.8,20.3-8.3,25.5c-3.9,3.6-10.5,5.4-20,5.4h-36.1c-1.1,0-2.1-0.4-2.8-1.2
		c-0.8-0.8-1.2-1.8-1.2-2.9V32c0-1.1,0.4-2.1,1.2-2.8c0.8-0.8,1.7-1.2,2.8-1.2h30.1c7.3,0,12.8,0.8,16.4,2.3
		c4.2,1.8,7.5,5.1,9.9,9.9c2.1,4.2,3.2,8.8,3.2,13.8c0,10.5-4,17.5-12.1,21.3C250.1,78.5,255.8,87.3,255.8,101.7z M233.7,55.2
		c0-3.4-1.2-6.3-3.6-8.5c-2.4-2.1-5.3-3.2-8.8-3.2h-11.2c-1,0-1.9,0.4-2.7,1.1c-0.7,0.7-1.1,1.6-1.1,2.7v16.1c0,2.5,1.3,3.8,3.8,3.8
		h11.2c3.6,0,6.6-1.1,8.9-3.3C232.6,61.7,233.7,58.8,233.7,55.2z M238.8,101.8c0-8.4-1.9-13.8-5.7-16.4c-2.9-2-6.6-3-11.1-3h-11.9
		c-1,0-1.9,0.4-2.7,1.1c-0.7,0.7-1.1,1.6-1.1,2.7v23.2c0,1,0.4,1.9,1.1,2.7c0.7,0.7,1.6,1.1,2.7,1.1h15.3c4,0,7.2-0.9,9.6-2.8
		C237.6,108.5,238.8,105.6,238.8,101.8z"/>
	<path id="b_1_" d="M95.4,101.7c0,11.8-2.8,20.3-8.3,25.5c-3.9,3.6-10.5,5.4-20,5.4H30.9c-1.1,0-2.1-0.4-2.8-1.2
		c-0.8-0.8-1.2-1.8-1.2-2.9V32c0-1.1,0.4-2.1,1.2-2.8c0.8-0.8,1.7-1.2,2.8-1.2H61c7.3,0,12.8,0.8,16.4,2.3c4.2,1.8,7.5,5.1,9.9,9.9
		c2.1,4.2,3.2,8.8,3.2,13.8c0,10.5-4,17.5-12.1,21.3C89.7,78.5,95.4,87.3,95.4,101.7z M73.4,55.2c0-3.4-1.2-6.3-3.6-8.5
		c-2.4-2.1-5.3-3.2-8.8-3.2H49.8c-1,0-1.9,0.4-2.7,1.1c-0.7,0.7-1.1,1.6-1.1,2.7v16.1c0,2.5,1.3,3.8,3.8,3.8H61
		c3.6,0,6.6-1.1,8.9-3.3C72.2,61.7,73.4,58.8,73.4,55.2z M78.5,101.8c0-8.4-1.9-13.8-5.7-16.4c-2.9-2-6.6-3-11.1-3H49.8
		c-1,0-1.9,0.4-2.7,1.1c-0.7,0.7-1.1,1.6-1.1,2.7v23.2c0,1,0.4,1.9,1.1,2.7c0.7,0.7,1.6,1.1,2.7,1.1h15.3c4,0,7.2-0.9,9.6-2.8
		C77.2,108.5,78.5,105.6,78.5,101.8z"/>
</g>
<g id="sun">
	<animateTransform attributeType="xml" 
              	      attributeName="transform" 
              	      type="rotate" 
           	          from="0 139 79" 
          	          to="360 139 79" 
            	      dur="6s" 
                      repeatCount="indefinite" />
	<path id="light-rays" class="st1" d="M154.6,39.5c2.9-2,5.6-4.1,8.5-6.2c1.6-1.2,3.1-2.3,4.7-3.5c0.8-0.6,1.5-1.1,2.3-1.6
		c0.6-0.4,1.5-1.5,2.2-1c0.7,0.5,0.3,1.2-0.1,1.8c-0.5,0.9-1,1.8-1.5,2.6c-0.9,1.7-1.9,3.4-2.8,5c-0.9,1.7-1.8,3.3-2.7,5
		c-0.4,0.8-0.9,1.5-1.2,2.3c-0.1,0.3-0.2,0.1,0,0.4c0.1,0.2,0.4,0.3,0.6,0.3c0.3,0,0.8-0.4,1.1-0.6c0.5-0.3,0.9-0.5,1.4-0.8
		c0.9-0.5,1.7-1,2.6-1.4c1.5-0.9,3.1-1.7,4.7-2.6c0.5-0.3,1.3-0.9,2-0.7c1,0.4,0.3,1.7,0,2.4c-0.7,1.8-1.4,3.5-2.1,5.3
		c-0.3,0.8-0.7,1.6-1,2.5c-0.2,0.5-0.8,1.5-0.5,2c0.2,0.3,0.6,0.5,0.8,0.8c0.3,0.3,0.5,0.7,0.8,0.9c0.7,0.5,1.8-0.1,2.5-0.3
		c3.7-0.9,7.5-1.7,11.2-2.6c1-0.2,2.1-0.5,3.1-0.8c0.6-0.2,2-0.8,2.6-0.1c0.7,0.7-0.4,1.3-0.9,1.7c-0.8,0.6-1.6,1.1-2.5,1.7
		c-1.7,1.2-3.4,2.4-5.2,3.6c-1.8,1.2-3.6,2.6-5.4,3.8c0.7,0.3,1.7,0.3,2.5,0.3c1.1,0.1,2.2,0.2,3.2,0.3c1.9,0.2,3.8,0.4,5.7,0.5
		c1.9,0.2,3.8,0.3,5.7,0.5c0.9,0.1,1.7,0.2,2.6,0.3c0.6,0,1.8-0.1,2.1,0.6c0.3,0.8-0.5,1.2-1.1,1.4c-1,0.3-2.1,0.6-3.1,0.9
		c-2,0.6-4.1,1.2-6.1,1.8c-2,0.6-4.1,1.2-6.1,1.9c-0.6,0.2-1.6,0.4-0.9,1.3c0.4,0.5,1.9,0.4,2.5,0.5c4,0.6,8,1.1,12,1.6
		c0.5,0.1,1.5,0.2,1.4,1c-0.1,0.9-1.6,1.1-2.3,1.3c-1.9,0.7-3.8,1.4-5.7,2.2c-1.9,0.7-4,1.2-5.8,2.2c-0.7,0.4-0.5,1.2-0.4,1.9
		c0,0.6-0.3,1.8,0,2.4c0.3,0.5,1.9,0.7,2.4,0.8c1.1,0.3,2.1,0.6,3.2,0.9c1.9,0.5,3.9,1.1,5.8,1.6c1.1,0.3,2.3,0.7,3.4,1
		c0.7,0.2,2.2,0.3,2.7,1c1.1,1.8-3.4,1.5-4.2,1.6c-4.6,0.3-9.2,0.4-13.7,1.1c3.2,2.1,6.2,4.5,9.3,6.7c1.6,1.1,3.2,2.3,4.8,3.5
		c0.6,0.5,3.9,2.1,2.6,3.2c-0.6,0.5-1.9-0.2-2.5-0.3c-1-0.2-1.9-0.4-2.9-0.6c-1.9-0.4-3.8-0.9-5.7-1.3c-1.9-0.5-3.8-0.9-5.8-1.3
		c-0.9-0.2-1.9-0.4-2.8-0.6c-0.2,0-1.1-0.4-1.2-0.2c-0.1,0.2,0.6,0.6,0.6,0.7c2.9,2.7,5.8,5.4,8.6,8.1c0.4,0.4,1.2,1.1,0.6,1.7
		c-0.5,0.5-1.8,0.1-2.4,0c-1.9-0.2-3.8-0.4-5.8-0.6c-2-0.2-4-0.4-6-0.7c-0.7-0.1-1.7-0.4-2.4-0.2c-0.5,0.1-1.2,0.7-1.2,1.3
		c0,0.6,0.7,1.3,1,1.7c0.5,0.8,0.9,1.7,1.4,2.5c1,1.7,1.9,3.5,2.9,5.2c0.5,0.9,1.1,1.7,1.6,2.6c0.4,0.7,1.1,1.7,1.3,2.4
		c0.2,1.2-1.1,1-1.7,0.5c-0.8-0.6-1.6-1.2-2.5-1.9c-1.8-1.4-3.6-2.8-5.4-4.2c-0.9-0.7-1.9-1.4-2.8-2.1c-0.4-0.3-0.8-0.6-1.2-0.9
		c-0.3-0.2-0.9-0.9-1.3-0.9c0.4,3.6,0.8,7.2,1.2,10.8c0.2,1.8,0.5,3.6,0.7,5.4c0.1,0.9,0.2,1.7,0.3,2.6c0.1,0.6,0.3,1.4-0.6,1.4
		c-0.7,0-1.1-0.9-1.4-1.4c-0.6-0.8-1.1-1.7-1.7-2.5c-1-1.6-2.1-3.2-3.1-4.8c-1.1-1.6-2.1-3.3-3.1-4.9c-0.3-0.4-0.9-1.8-1.3-2
		c-0.7-0.3-1,0.4-1,0.9c-0.2,3.6,0.2,7.2-0.3,10.7c-0.1,0.6-0.4,1-1,0.9c-0.7-0.1-1.3-1.1-1.7-1.6c-1.2-1.5-2.5-2.9-3.7-4.3
		c-0.6-0.7-1.3-1.5-1.9-2.2c-0.4-0.4-1-1.6-1.6-1.8c-0.5-0.2-1.5,0.2-2.1,0.2c-0.2,0-0.7-0.1-0.9,0.1c-0.2,0.2-0.4,1.1-0.5,1.3
		c-1.3,3.6-2.6,7.2-3.9,10.7c-0.3,0.9-0.6,1.8-0.9,2.7c-0.2,0.6-0.4,1.8-1.2,1.9c-0.9,0.1-0.9-0.8-1-1.4c-0.1-1.1-0.2-2.2-0.3-3.3
		c-0.2-1.9-0.3-3.9-0.5-5.8c-0.1-2-0.5-4.1-0.5-6.2c-3.3,3.8-6.7,7.5-10,11.3c-0.8,0.9-1.6,1.8-2.4,2.7c-0.5,0.5-1.4,2.2-2.2,1.4
		c-0.7-0.7,0.1-2.2,0.3-2.9c0.4-1.3,0.8-2.5,1.1-3.8c0.6-2.3,1.2-4.6,1.9-6.9c0.3-1.1,0.6-2.2,0.9-3.3c0.1-0.3,0.3-0.6,0.2-0.9
		c-0.2-0.4-0.9-0.4-1.2-0.2c-0.9,0.4-1.8,1.5-2.5,2.1c-1,0.9-2,1.7-3,2.6c-0.9,0.8-1.8,1.5-2.7,2.3c-0.3,0.3-0.7,0.8-1.1,0.8
		c-0.5,0.1-0.9-0.3-1-0.7c-0.1-0.4,0.1-0.8,0.2-1.2c0.1-0.6,0.2-1.2,0.2-1.8c0.2-1.2,0.3-2.5,0.5-3.7c0.2-1.1,0.3-2.1,0.4-3.2
		c0-0.3,0.3-1.1,0.1-1.4c-0.2-0.4-0.7-0.3-1-0.1c-0.9,0.6-1.8,1.7-2.6,2.4c-1,0.9-1.9,1.7-2.8,2.6c-1.7,1.6-3.4,3.2-5.1,4.7
		c-0.6,0.5-1.8,0.8-1.7-0.4c0-0.5,0.5-1,0.7-1.4c0.3-0.7,0.6-1.4,0.9-2c0.9-2.2,1.9-4.3,2.9-6.4c0.5-1.1,1-2.2,1.5-3.2
		c0.1-0.2,0.5-0.8,0.5-1c-0.2-0.6-0.9-0.2-1.2,0c-2.2,1-4.5,1.9-6.8,2.9c-2.2,0.9-4.3,1.8-6.5,2.7c-1.1,0.5-2.2,1-3.3,1.5
		c-0.6,0.3-2.3,1.3-2.7,0.2c-0.3-0.7,0.8-1.6,1.2-2c0.9-1,1.8-1.9,2.7-2.9c1.8-1.8,3.5-3.7,5.2-5.5c0.8-0.9,1.7-1.8,2.5-2.7
		c0.3-0.3,2.1-1.8,1.7-2.1c-0.3-0.3-2.4,0.6-2.8,0.7c-1.3,0.4-2.5,0.7-3.8,1.1c-1.1,0.3-2.3,0.7-3.4,1c-1,0.3-2.3,0.9-3.4,0.9
		c-1,0-1.1-0.8-0.7-1.4c0.7-0.9,1.4-1.9,2.1-2.8c1.5-2,3-4.1,4.4-6.1c0.7-0.9,1.4-1.9,2.1-2.8c0.6-0.8,0.4-1.6-0.6-1.6
		c-2.5,0-4.9,0-7.4,0c-1.2,0-2.3,0.1-3.5,0.1c-0.5,0-1,0-1.5,0c-0.4,0-1.2,0.3-1.6,0.1c-0.8-0.4-0.4-1.3,0.2-1.6
		c1.1-0.6,2.5-0.9,3.6-1.3c2.3-0.9,4.7-1.8,7-2.7c0.6-0.2,2.4-0.6,2.7-1.2c0.1-0.2,0-0.9,0-1.1c0-0.3-0.2-0.6-0.5-0.8
		c-0.8-0.5-2.1-0.7-3-1c-1.2-0.4-2.4-0.9-3.6-1.3c-2.4-0.8-4.8-1.5-7.1-2.3c-1-0.3-2.3-0.5-3.1-1.1c-0.7-0.5-0.6-1.4,0.3-1.6
		c1.1-0.3,2.6-0.2,3.8-0.2c1.2-0.1,2.3-0.1,3.5-0.2c2.4-0.2,4.8-0.4,7.2-0.6c0.6,0,1.2-0.1,1.8-0.1c0.3,0,1,0,1.2-0.1
		c0.2-0.2,0.2-0.9,0.3-1.2c0.2-0.7,0.4-0.9-0.3-1.2c-2-1.1-4-2.2-6-3.3c-0.9-0.5-1.8-1.1-2.7-1.6c-0.7-0.4-2.3-0.8-1.8-1.9
		c0.4-0.9,1.8-0.7,2.6-0.7c1.3-0.1,2.5-0.2,3.8-0.3c1.1-0.1,2.2-0.2,3.4-0.3c1-0.1,2.1-0.3,3.1-0.3c-2.4-2-4.8-4.2-7.2-6.3
		c-1.2-1-2.3-2.1-3.5-3.1c-0.6-0.5-2.7-1.8-1.8-2.7c0.7-0.8,2.6,0.4,3.4,0.7c1.6,0.6,3.1,1.2,4.7,1.8c3,1.1,6,2.3,9.1,3.3
		c-0.2-1-0.9-1.9-1.3-2.7c-0.5-1-1-2-1.5-3c-1-2-2.1-4-3.1-6c-1-1.9-2-3.7-2.9-5.6c-0.4-0.9,0.1-1.7,1.1-1.2c1,0.5,1.9,1.4,2.8,2.2
		c3.4,2.8,6.9,5.4,10.4,8.1c0.5,0.4,1.3,1.5,2,1c0.7-0.5,0.2-1.2,0-1.9c-0.7-2.2-1.5-4.3-2.3-6.4c-0.2-0.6-0.4-1.1-0.6-1.7
		c-0.2-0.4-0.6-1-0.6-1.5c0-1.5,1.7-0.5,2.3-0.1c2,1.2,4.1,2.3,6,3.5c-0.2-1.1-0.6-2-0.9-3.1c-0.4-1.2-0.7-2.4-1-3.6
		c-0.3-1.1-0.7-2.1-1-3.2c-0.2-0.7-1-2.3,0-2.7c0.9-0.3,1.7,1.2,2.2,1.8c0.8,0.9,1.6,1.9,2.4,2.8c1.5,1.9,3.1,3.7,4.7,5.6
		c0.5,0.7,1.2,1.8,1.9,2.2c0.4,0.2,0.4,0.2,0.5-0.2c0.2-0.6,0.2-1.3,0.3-1.9c0.3-2.4,0.5-4.8,0.8-7.1c0.3-2.4,0.6-4.8,0.9-7.3
		c0.1-0.7-0.1-2.6,0.6-3c1.1-0.7,1.5,1.1,1.7,1.7c1.6,4.5,3.3,8.9,5,13.4c0.2,0.5,0.3,1.1,0.6,1.5c0.2,0.4,0.2,0.3,0.5,0.3
		c0.9,0.1,0.9-0.7,1.1-1.5c0.6-2.3,1.2-4.5,1.9-6.8c0.2-0.6,0.3-1.2,0.5-1.8c0.1-0.4,0.1-0.9,0.3-1.2c0.8-1.1,1.6,0.4,1.8,1
		c1.1,2.1,2.2,4.2,3.4,6.3c0.5,1,1,1.9,1.5,2.9c0.4,0.9,1.2,1.2,2.2,1.1c0.9-0.1,1.5-1.7,1.9-2.4c0.7-1.1,1.4-2.2,2.1-3.3
		c1.4-2.2,2.8-4.4,4.2-6.6c0.4-0.6,0.7-1.1,1.1-1.7c0.3-0.4,0.6-1.2,1.1-1.4c0.3-0.2,0.8-0.2,1,0.1c0.4,0.4,0.2,1,0.1,1.5
		c-0.4,2.5-0.9,5.1-1.3,7.6c-0.2,1.3-0.3,2.6-0.5,3.8C155.1,37.4,154.8,38.4,154.6,39.5z M175.8,78.7c-0.1-7.4-2.4-14.5-6.8-20.5
		c-4.5-6.2-11-11.1-18.4-13.4c-7-2.2-14.9-2.2-22,0c-7,2.1-13,6.6-17.6,12.3c-9.4,11.6-10.3,29.1-2.2,41.7c4,6.2,10.1,11.5,17,14.3
		c6.9,2.8,14.9,3.3,22.1,1.7c14.4-3.2,25.3-15.7,27.4-30.2C175.6,82.6,175.8,80.7,175.8,78.7z"/>
	<path id="inner-circle" class="st2" d="M175.8,78.7c-0.1,7.5-1.9,14.9-6.2,21.1c-4.1,6-10,10.9-16.8,13.5
		c-6.8,2.6-14.6,3.1-21.7,1.4c-7.5-1.7-14.1-6-19.1-11.8c-9.7-11.3-11.5-28.5-3.9-41.4c3.7-6.3,9.5-11.7,16.1-14.8
		c6.6-3.1,14.2-4,21.3-3c14.9,2.3,27.4,14.7,29.8,29.6C175.6,75,175.8,76.9,175.8,78.7z M129.1,50.5 M135.8,48.4 M128.6,51
		 M161.8,101.8L161.8,101.8L161.8,101.8L161.8,101.8z"/>
	<path id="high-light" class="st3" d="M127.8,51.3c1-0.8,2.4-1.2,3.6-1.6c1.5-0.5,3.1-1,4.6-1.2c3.2-0.6,6.5-0.6,9.8-0.2
		c5.7,0.8,11.2,3.4,15.6,7.2c7.9,7,11.7,18,10.1,28.4c-0.5,3.3-1.5,6.6-3.1,9.5c-0.8,1.6-1.8,3.1-2.8,4.5c-0.5,0.6-1,1.2-1.5,1.8
		c-0.3,0.3-1,1.4-1.5,1.4c0.1,0,1.5-2.1,1.6-2.3c0.8-1.2,1.5-2.4,2.2-3.6c1.3-2.5,2.2-5.2,2.7-8c1-4.9,0.6-9.9-0.9-14.7
		c-3.1-9.9-11.1-17.4-20.9-20.6c-3.1-1-6.4-1.6-9.7-1.7c-1.7,0-3.3,0-5,0.2c-0.9,0.1-1.8,0.2-2.7,0.4
		C129.2,51,128.5,51.3,127.8,51.3L127.8,51.3z"/>
</g>
</svg>
