<?xml version="1.0" encoding="UTF-8" standalone="no"?>
<!DOCTYPE svg PUBLIC "-//W3C//DTD SVG 1.1//EN"
 "http://www.w3.org/Graphics/SVG/1.1/DTD/svg11.dtd">
<!-- Generated by graphviz version 2.46.0 (20210119.1425)
 -->
<!-- Title: dependencies Pages: 1 -->
<svg width="504pt" height="211pt"
 viewBox="0.00 0.00 504.00 211.00" xmlns="http://www.w3.org/2000/svg" xmlns:xlink="http://www.w3.org/1999/xlink">
<g id="graph0" class="graph" transform="scale(1 1) rotate(0) translate(4 207)">
<title>dependencies</title>
<polygon fill="white" stroke="transparent" points="-4,4 -4,-207 500,-207 500,4 -4,4"/>
<text text-anchor="start" x="227.01" y="-42.4" font-family="sans-serif" font-weight="bold" font-size="14.00">Legend</text>
<polygon fill="#ffffb3" stroke="transparent" points="14,-10 14,-30 34,-30 34,-10 14,-10"/>
<text text-anchor="start" x="37.63" y="-15.4" font-family="sans-serif" font-size="14.00"> &#160;Declarations</text>
<polygon fill="#8dd3c7" stroke="transparent" points="127,-10 127,-30 147,-30 147,-10 127,-10"/>
<text text-anchor="start" x="150.73" y="-15.4" font-family="sans-serif" font-size="14.00"> &#160;Module</text>
<polygon fill="#80b1d3" stroke="transparent" points="213,-10 213,-30 233,-30 233,-10 213,-10"/>
<text text-anchor="start" x="236.78" y="-15.4" font-family="sans-serif" font-size="14.00"> &#160;Bootstrap</text>
<polygon fill="#fdb462" stroke="transparent" points="310,-10 310,-30 330,-30 330,-10 310,-10"/>
<text text-anchor="start" x="333.67" y="-15.4" font-family="sans-serif" font-size="14.00"> &#160;Providers</text>
<polygon fill="#fb8072" stroke="transparent" points="406,-10 406,-30 426,-30 426,-10 406,-10"/>
<text text-anchor="start" x="429.73" y="-15.4" font-family="sans-serif" font-size="14.00"> &#160;Exports</text>
<g id="clust1" class="cluster">
<title>cluster_ListPageModule</title>
<polygon fill="none" stroke="black" stroke-dasharray="1,5" points="111,-70 111,-195 385,-195 385,-70 111,-70"/>
</g>
<g id="clust2" class="cluster">
<title>cluster_ListPageModule_declarations</title>
<polygon fill="none" stroke="black" points="297,-78 297,-130 377,-130 377,-78 297,-78"/>
</g>
<g id="clust4" class="cluster">
<title>cluster_ListPageModule_imports</title>
<polygon fill="none" stroke="black" points="119,-78 119,-130 289,-130 289,-78 119,-78"/>
</g>
<!-- ListPage -->
<g id="node1" class="node">
<title>ListPage</title>
<polygon fill="#ffffb3" stroke="black" points="369.49,-122 304.51,-122 304.51,-86 369.49,-86 369.49,-122"/>
<text text-anchor="middle" x="337" y="-99.8" font-family="Times,serif" font-size="14.00">ListPage</text>
</g>
<!-- ListPageModule -->
<g id="node2" class="node">
<title>ListPageModule</title>
<polygon fill="#8dd3c7" stroke="black" points="317.04,-187 314.04,-191 293.04,-191 290.04,-187 208.96,-187 208.96,-151 317.04,-151 317.04,-187"/>
<text text-anchor="middle" x="263" y="-164.8" font-family="Times,serif" font-size="14.00">ListPageModule</text>
</g>
<!-- ListPage&#45;&gt;ListPageModule -->
<g id="edge1" class="edge">
<title>ListPage&#45;&gt;ListPageModule</title>
<path fill="none" stroke="black" d="M310.89,-122.11C310.89,-122.11 310.89,-140.99 310.89,-140.99"/>
<polygon fill="black" stroke="black" points="307.39,-140.99 310.89,-150.99 314.39,-140.99 307.39,-140.99"/>
</g>
<!-- ListPageRoutingModule -->
<g id="node3" class="node">
<title>ListPageRoutingModule</title>
<polygon fill="#8dd3c7" stroke="black" points="280.66,-122 277.66,-126 256.66,-126 253.66,-122 127.34,-122 127.34,-86 280.66,-86 280.66,-122"/>
<text text-anchor="middle" x="204" y="-99.8" font-family="Times,serif" font-size="14.00">ListPageRoutingModule</text>
</g>
<!-- ListPageRoutingModule&#45;&gt;ListPageModule -->
<g id="edge2" class="edge">
<title>ListPageRoutingModule&#45;&gt;ListPageModule</title>
<path fill="none" stroke="black" d="M244.78,-122.11C244.78,-122.11 244.78,-140.99 244.78,-140.99"/>
<polygon fill="black" stroke="black" points="241.28,-140.99 244.78,-150.99 248.28,-140.99 241.28,-140.99"/>
</g>
</g>
</svg>
