<?xml version="1.0" encoding="UTF-8" standalone="no"?>
<!DOCTYPE svg PUBLIC "-//W3C//DTD SVG 1.1//EN"
 "http://www.w3.org/Graphics/SVG/1.1/DTD/svg11.dtd">
<!-- Generated by graphviz version 2.46.0 (20210119.1425)
 -->
<!-- Title: dependencies Pages: 1 -->
<svg width="504pt" height="211pt"
 viewBox="0.00 0.00 504.00 211.00" xmlns="http://www.w3.org/2000/svg" xmlns:xlink="http://www.w3.org/1999/xlink">
<g id="graph0" class="graph" transform="scale(1 1) rotate(0) translate(4 207)">
<title>dependencies</title>
<polygon fill="white" stroke="transparent" points="-4,4 -4,-207 500,-207 500,4 -4,4"/>
<text text-anchor="start" x="227.01" y="-42.4" font-family="sans-serif" font-weight="bold" font-size="14.00">Legend</text>
<polygon fill="#ffffb3" stroke="transparent" points="14,-10 14,-30 34,-30 34,-10 14,-10"/>
<text text-anchor="start" x="37.63" y="-15.4" font-family="sans-serif" font-size="14.00"> &#160;Declarations</text>
<polygon fill="#8dd3c7" stroke="transparent" points="127,-10 127,-30 147,-30 147,-10 127,-10"/>
<text text-anchor="start" x="150.73" y="-15.4" font-family="sans-serif" font-size="14.00"> &#160;Module</text>
<polygon fill="#80b1d3" stroke="transparent" points="213,-10 213,-30 233,-30 233,-10 213,-10"/>
<text text-anchor="start" x="236.78" y="-15.4" font-family="sans-serif" font-size="14.00"> &#160;Bootstrap</text>
<polygon fill="#fdb462" stroke="transparent" points="310,-10 310,-30 330,-30 330,-10 310,-10"/>
<text text-anchor="start" x="333.67" y="-15.4" font-family="sans-serif" font-size="14.00"> &#160;Providers</text>
<polygon fill="#fb8072" stroke="transparent" points="406,-10 406,-30 426,-30 426,-10 406,-10"/>
<text text-anchor="start" x="429.73" y="-15.4" font-family="sans-serif" font-size="14.00"> &#160;Exports</text>
<g id="clust1" class="cluster">
<title>cluster_TourTypesPageModule</title>
<polygon fill="none" stroke="black" stroke-dasharray="1,5" points="71,-70 71,-195 425,-195 425,-70 71,-70"/>
</g>
<g id="clust4" class="cluster">
<title>cluster_TourTypesPageModule_imports</title>
<polygon fill="none" stroke="black" points="207,-78 207,-130 417,-130 417,-78 207,-78"/>
</g>
<g id="clust2" class="cluster">
<title>cluster_TourTypesPageModule_declarations</title>
<polygon fill="none" stroke="black" points="79,-78 79,-130 199,-130 199,-78 79,-78"/>
</g>
<!-- TourTypesPage -->
<g id="node1" class="node">
<title>TourTypesPage</title>
<polygon fill="#ffffb3" stroke="black" points="191.14,-122 86.86,-122 86.86,-86 191.14,-86 191.14,-122"/>
<text text-anchor="middle" x="139" y="-99.8" font-family="Times,serif" font-size="14.00">TourTypesPage</text>
</g>
<!-- TourTypesPageModule -->
<g id="node2" class="node">
<title>TourTypesPageModule</title>
<polygon fill="#8dd3c7" stroke="black" points="306.19,-187 303.19,-191 282.19,-191 279.19,-187 157.81,-187 157.81,-151 306.19,-151 306.19,-187"/>
<text text-anchor="middle" x="232" y="-164.8" font-family="Times,serif" font-size="14.00">TourTypesPageModule</text>
</g>
<!-- TourTypesPage&#45;&gt;TourTypesPageModule -->
<g id="edge1" class="edge">
<title>TourTypesPage&#45;&gt;TourTypesPageModule</title>
<path fill="none" stroke="black" d="M174.61,-122.11C174.61,-122.11 174.61,-140.99 174.61,-140.99"/>
<polygon fill="black" stroke="black" points="171.11,-140.99 174.61,-150.99 178.11,-140.99 171.11,-140.99"/>
</g>
<!-- TourTypesPageRoutingModule -->
<g id="node3" class="node">
<title>TourTypesPageRoutingModule</title>
<polygon fill="#8dd3c7" stroke="black" points="408.8,-122 405.8,-126 384.8,-126 381.8,-122 215.2,-122 215.2,-86 408.8,-86 408.8,-122"/>
<text text-anchor="middle" x="312" y="-99.8" font-family="Times,serif" font-size="14.00">TourTypesPageRoutingModule</text>
</g>
<!-- TourTypesPageRoutingModule&#45;&gt;TourTypesPageModule -->
<g id="edge2" class="edge">
<title>TourTypesPageRoutingModule&#45;&gt;TourTypesPageModule</title>
<path fill="none" stroke="black" d="M260.72,-122.11C260.72,-122.11 260.72,-140.99 260.72,-140.99"/>
<polygon fill="black" stroke="black" points="257.22,-140.99 260.72,-150.99 264.22,-140.99 257.22,-140.99"/>
</g>
</g>
</svg>
