<?xml version="1.0" encoding="UTF-8" standalone="no"?>
<!DOCTYPE svg PUBLIC "-//W3C//DTD SVG 1.1//EN"
 "http://www.w3.org/Graphics/SVG/1.1/DTD/svg11.dtd">
<!-- Generated by graphviz version 2.46.0 (20210119.1425)
 -->
<!-- Title: dependencies Pages: 1 -->
<svg width="504pt" height="211pt"
 viewBox="0.00 0.00 504.00 211.00" xmlns="http://www.w3.org/2000/svg" xmlns:xlink="http://www.w3.org/1999/xlink">
<g id="graph0" class="graph" transform="scale(1 1) rotate(0) translate(4 207)">
<title>dependencies</title>
<polygon fill="white" stroke="transparent" points="-4,4 -4,-207 500,-207 500,4 -4,4"/>
<text text-anchor="start" x="227.01" y="-42.4" font-family="sans-serif" font-weight="bold" font-size="14.00">Legend</text>
<polygon fill="#ffffb3" stroke="transparent" points="14,-10 14,-30 34,-30 34,-10 14,-10"/>
<text text-anchor="start" x="37.63" y="-15.4" font-family="sans-serif" font-size="14.00"> &#160;Declarations</text>
<polygon fill="#8dd3c7" stroke="transparent" points="127,-10 127,-30 147,-30 147,-10 127,-10"/>
<text text-anchor="start" x="150.73" y="-15.4" font-family="sans-serif" font-size="14.00"> &#160;Module</text>
<polygon fill="#80b1d3" stroke="transparent" points="213,-10 213,-30 233,-30 233,-10 213,-10"/>
<text text-anchor="start" x="236.78" y="-15.4" font-family="sans-serif" font-size="14.00"> &#160;Bootstrap</text>
<polygon fill="#fdb462" stroke="transparent" points="310,-10 310,-30 330,-30 330,-10 310,-10"/>
<text text-anchor="start" x="333.67" y="-15.4" font-family="sans-serif" font-size="14.00"> &#160;Providers</text>
<polygon fill="#fb8072" stroke="transparent" points="406,-10 406,-30 426,-30 426,-10 406,-10"/>
<text text-anchor="start" x="429.73" y="-15.4" font-family="sans-serif" font-size="14.00"> &#160;Exports</text>
<g id="clust1" class="cluster">
<title>cluster_RegionsPageModule</title>
<polygon fill="none" stroke="black" stroke-dasharray="1,5" points="86,-70 86,-195 410,-195 410,-70 86,-70"/>
</g>
<g id="clust4" class="cluster">
<title>cluster_RegionsPageModule_imports</title>
<polygon fill="none" stroke="black" points="208,-78 208,-130 402,-130 402,-78 208,-78"/>
</g>
<g id="clust2" class="cluster">
<title>cluster_RegionsPageModule_declarations</title>
<polygon fill="none" stroke="black" points="94,-78 94,-130 200,-130 200,-78 94,-78"/>
</g>
<!-- RegionsPage -->
<g id="node1" class="node">
<title>RegionsPage</title>
<polygon fill="#ffffb3" stroke="black" points="191.6,-122 102.4,-122 102.4,-86 191.6,-86 191.6,-122"/>
<text text-anchor="middle" x="147" y="-99.8" font-family="Times,serif" font-size="14.00">RegionsPage</text>
</g>
<!-- RegionsPageModule -->
<g id="node2" class="node">
<title>RegionsPageModule</title>
<polygon fill="#8dd3c7" stroke="black" points="298.15,-187 295.15,-191 274.15,-191 271.15,-187 165.85,-187 165.85,-151 298.15,-151 298.15,-187"/>
<text text-anchor="middle" x="232" y="-164.8" font-family="Times,serif" font-size="14.00">RegionsPageModule</text>
</g>
<!-- RegionsPage&#45;&gt;RegionsPageModule -->
<g id="edge1" class="edge">
<title>RegionsPage&#45;&gt;RegionsPageModule</title>
<path fill="none" stroke="black" d="M178.61,-122.11C178.61,-122.11 178.61,-140.99 178.61,-140.99"/>
<polygon fill="black" stroke="black" points="175.11,-140.99 178.61,-150.99 182.11,-140.99 175.11,-140.99"/>
</g>
<!-- RegionsPageRoutingModule -->
<g id="node3" class="node">
<title>RegionsPageRoutingModule</title>
<polygon fill="#8dd3c7" stroke="black" points="393.77,-122 390.77,-126 369.77,-126 366.77,-122 216.23,-122 216.23,-86 393.77,-86 393.77,-122"/>
<text text-anchor="middle" x="305" y="-99.8" font-family="Times,serif" font-size="14.00">RegionsPageRoutingModule</text>
</g>
<!-- RegionsPageRoutingModule&#45;&gt;RegionsPageModule -->
<g id="edge2" class="edge">
<title>RegionsPageRoutingModule&#45;&gt;RegionsPageModule</title>
<path fill="none" stroke="black" d="M257.22,-122.11C257.22,-122.11 257.22,-140.99 257.22,-140.99"/>
<polygon fill="black" stroke="black" points="253.72,-140.99 257.22,-150.99 260.72,-140.99 253.72,-140.99"/>
</g>
</g>
</svg>
