<?xml version="1.0" encoding="UTF-8" standalone="no"?>
<!DOCTYPE svg PUBLIC "-//W3C//DTD SVG 1.1//EN"
 "http://www.w3.org/Graphics/SVG/1.1/DTD/svg11.dtd">
<!-- Generated by graphviz version 2.46.0 (20210119.1425)
 -->
<!-- Title: dependencies Pages: 1 -->
<svg width="504pt" height="211pt"
 viewBox="0.00 0.00 504.00 211.00" xmlns="http://www.w3.org/2000/svg" xmlns:xlink="http://www.w3.org/1999/xlink">
<g id="graph0" class="graph" transform="scale(1 1) rotate(0) translate(4 207)">
<title>dependencies</title>
<polygon fill="white" stroke="transparent" points="-4,4 -4,-207 500,-207 500,4 -4,4"/>
<text text-anchor="start" x="227.01" y="-42.4" font-family="sans-serif" font-weight="bold" font-size="14.00">Legend</text>
<polygon fill="#ffffb3" stroke="transparent" points="14,-10 14,-30 34,-30 34,-10 14,-10"/>
<text text-anchor="start" x="37.63" y="-15.4" font-family="sans-serif" font-size="14.00"> &#160;Declarations</text>
<polygon fill="#8dd3c7" stroke="transparent" points="127,-10 127,-30 147,-30 147,-10 127,-10"/>
<text text-anchor="start" x="150.73" y="-15.4" font-family="sans-serif" font-size="14.00"> &#160;Module</text>
<polygon fill="#80b1d3" stroke="transparent" points="213,-10 213,-30 233,-30 233,-10 213,-10"/>
<text text-anchor="start" x="236.78" y="-15.4" font-family="sans-serif" font-size="14.00"> &#160;Bootstrap</text>
<polygon fill="#fdb462" stroke="transparent" points="310,-10 310,-30 330,-30 330,-10 310,-10"/>
<text text-anchor="start" x="333.67" y="-15.4" font-family="sans-serif" font-size="14.00"> &#160;Providers</text>
<polygon fill="#fb8072" stroke="transparent" points="406,-10 406,-30 426,-30 426,-10 406,-10"/>
<text text-anchor="start" x="429.73" y="-15.4" font-family="sans-serif" font-size="14.00"> &#160;Exports</text>
<g id="clust1" class="cluster">
<title>cluster_MapPageModule</title>
<polygon fill="none" stroke="black" stroke-dasharray="1,5" points="107,-70 107,-195 389,-195 389,-70 107,-70"/>
</g>
<g id="clust2" class="cluster">
<title>cluster_MapPageModule_declarations</title>
<polygon fill="none" stroke="black" points="297,-78 297,-130 381,-130 381,-78 297,-78"/>
</g>
<g id="clust4" class="cluster">
<title>cluster_MapPageModule_imports</title>
<polygon fill="none" stroke="black" points="115,-78 115,-130 289,-130 289,-78 115,-78"/>
</g>
<!-- MapPage -->
<g id="node1" class="node">
<title>MapPage</title>
<polygon fill="#ffffb3" stroke="black" points="373.37,-122 304.63,-122 304.63,-86 373.37,-86 373.37,-122"/>
<text text-anchor="middle" x="339" y="-99.8" font-family="Times,serif" font-size="14.00">MapPage</text>
</g>
<!-- MapPageModule -->
<g id="node2" class="node">
<title>MapPageModule</title>
<polygon fill="#8dd3c7" stroke="black" points="319.42,-187 316.42,-191 295.42,-191 292.42,-187 206.58,-187 206.58,-151 319.42,-151 319.42,-187"/>
<text text-anchor="middle" x="263" y="-164.8" font-family="Times,serif" font-size="14.00">MapPageModule</text>
</g>
<!-- MapPage&#45;&gt;MapPageModule -->
<g id="edge1" class="edge">
<title>MapPage&#45;&gt;MapPageModule</title>
<path fill="none" stroke="black" d="M311.89,-122.11C311.89,-122.11 311.89,-140.99 311.89,-140.99"/>
<polygon fill="black" stroke="black" points="308.39,-140.99 311.89,-150.99 315.39,-140.99 308.39,-140.99"/>
</g>
<!-- MapPageRoutingModule -->
<g id="node3" class="node">
<title>MapPageRoutingModule</title>
<polygon fill="#8dd3c7" stroke="black" points="280.54,-122 277.54,-126 256.54,-126 253.54,-122 123.46,-122 123.46,-86 280.54,-86 280.54,-122"/>
<text text-anchor="middle" x="202" y="-99.8" font-family="Times,serif" font-size="14.00">MapPageRoutingModule</text>
</g>
<!-- MapPageRoutingModule&#45;&gt;MapPageModule -->
<g id="edge2" class="edge">
<title>MapPageRoutingModule&#45;&gt;MapPageModule</title>
<path fill="none" stroke="black" d="M243.78,-122.11C243.78,-122.11 243.78,-140.99 243.78,-140.99"/>
<polygon fill="black" stroke="black" points="240.28,-140.99 243.78,-150.99 247.28,-140.99 240.28,-140.99"/>
</g>
</g>
</svg>
