<?xml version="1.0" encoding="UTF-8" standalone="no"?>
<!DOCTYPE svg PUBLIC "-//W3C//DTD SVG 1.1//EN"
 "http://www.w3.org/Graphics/SVG/1.1/DTD/svg11.dtd">
<!-- Generated by graphviz version 2.46.0 (20210119.1425)
 -->
<!-- Title: dependencies Pages: 1 -->
<svg width="528pt" height="211pt"
 viewBox="0.00 0.00 528.00 211.00" xmlns="http://www.w3.org/2000/svg" xmlns:xlink="http://www.w3.org/1999/xlink">
<g id="graph0" class="graph" transform="scale(1 1) rotate(0) translate(4 207)">
<title>dependencies</title>
<polygon fill="white" stroke="transparent" points="-4,4 -4,-207 524,-207 524,4 -4,4"/>
<text text-anchor="start" x="239.01" y="-42.4" font-family="sans-serif" font-weight="bold" font-size="14.00">Legend</text>
<polygon fill="#ffffb3" stroke="transparent" points="26,-10 26,-30 46,-30 46,-10 26,-10"/>
<text text-anchor="start" x="49.63" y="-15.4" font-family="sans-serif" font-size="14.00"> &#160;Declarations</text>
<polygon fill="#8dd3c7" stroke="transparent" points="139,-10 139,-30 159,-30 159,-10 139,-10"/>
<text text-anchor="start" x="162.73" y="-15.4" font-family="sans-serif" font-size="14.00"> &#160;Module</text>
<polygon fill="#80b1d3" stroke="transparent" points="225,-10 225,-30 245,-30 245,-10 225,-10"/>
<text text-anchor="start" x="248.78" y="-15.4" font-family="sans-serif" font-size="14.00"> &#160;Bootstrap</text>
<polygon fill="#fdb462" stroke="transparent" points="322,-10 322,-30 342,-30 342,-10 322,-10"/>
<text text-anchor="start" x="345.67" y="-15.4" font-family="sans-serif" font-size="14.00"> &#160;Providers</text>
<polygon fill="#fb8072" stroke="transparent" points="418,-10 418,-30 438,-30 438,-10 418,-10"/>
<text text-anchor="start" x="441.73" y="-15.4" font-family="sans-serif" font-size="14.00"> &#160;Exports</text>
<g id="clust1" class="cluster">
<title>cluster_DetailsPageModule</title>
<polygon fill="none" stroke="black" stroke-dasharray="1,5" points="8,-70 8,-195 512,-195 512,-70 8,-70"/>
</g>
<g id="clust6" class="cluster">
<title>cluster_DetailsPageModule_imports</title>
<polygon fill="none" stroke="black" points="316,-78 316,-130 504,-130 504,-78 316,-78"/>
</g>
<g id="clust2" class="cluster">
<title>cluster_DetailsPageModule_declarations</title>
<polygon fill="none" stroke="black" points="16,-78 16,-130 308,-130 308,-78 16,-78"/>
</g>
<!-- DetailsPage -->
<g id="node1" class="node">
<title>DetailsPage</title>
<polygon fill="#ffffb3" stroke="black" points="300.36,-122 217.64,-122 217.64,-86 300.36,-86 300.36,-122"/>
<text text-anchor="middle" x="259" y="-99.8" font-family="Times,serif" font-size="14.00">DetailsPage</text>
</g>
<!-- DetailsPageModule -->
<g id="node4" class="node">
<title>DetailsPageModule</title>
<polygon fill="#8dd3c7" stroke="black" points="275.41,-187 272.41,-191 251.41,-191 248.41,-187 148.59,-187 148.59,-151 275.41,-151 275.41,-187"/>
<text text-anchor="middle" x="212" y="-164.8" font-family="Times,serif" font-size="14.00">DetailsPageModule</text>
</g>
<!-- DetailsPage&#45;&gt;DetailsPageModule -->
<g id="edge1" class="edge">
<title>DetailsPage&#45;&gt;DetailsPageModule</title>
<path fill="none" stroke="black" d="M246.39,-122.11C246.39,-122.11 246.39,-140.99 246.39,-140.99"/>
<polygon fill="black" stroke="black" points="242.89,-140.99 246.39,-150.99 249.89,-140.99 242.89,-140.99"/>
</g>
<!-- MapPage -->
<g id="node2" class="node">
<title>MapPage</title>
<polygon fill="#ffffb3" stroke="black" points="199.37,-122 130.63,-122 130.63,-86 199.37,-86 199.37,-122"/>
<text text-anchor="middle" x="165" y="-99.8" font-family="Times,serif" font-size="14.00">MapPage</text>
</g>
<!-- MapPage&#45;&gt;DetailsPageModule -->
<g id="edge2" class="edge">
<title>MapPage&#45;&gt;DetailsPageModule</title>
<path fill="none" stroke="black" d="M174.11,-122.11C174.11,-122.11 174.11,-140.99 174.11,-140.99"/>
<polygon fill="black" stroke="black" points="170.61,-140.99 174.11,-150.99 177.61,-140.99 170.61,-140.99"/>
</g>
<!-- RequestPage -->
<g id="node3" class="node">
<title>RequestPage</title>
<polygon fill="#ffffb3" stroke="black" points="112.31,-122 23.69,-122 23.69,-86 112.31,-86 112.31,-122"/>
<text text-anchor="middle" x="68" y="-99.8" font-family="Times,serif" font-size="14.00">RequestPage</text>
</g>
<!-- RequestPage&#45;&gt;DetailsPageModule -->
<g id="edge3" class="edge">
<title>RequestPage&#45;&gt;DetailsPageModule</title>
<path fill="none" stroke="black" d="M68,-122.11C68,-141.34 68,-169 68,-169 68,-169 138.42,-169 138.42,-169"/>
<polygon fill="black" stroke="black" points="138.42,-172.5 148.42,-169 138.42,-165.5 138.42,-172.5"/>
</g>
<!-- DetailsPageRoutingModule -->
<g id="node5" class="node">
<title>DetailsPageRoutingModule</title>
<polygon fill="#8dd3c7" stroke="black" points="495.53,-122 492.53,-126 471.53,-126 468.53,-122 324.47,-122 324.47,-86 495.53,-86 495.53,-122"/>
<text text-anchor="middle" x="410" y="-99.8" font-family="Times,serif" font-size="14.00">DetailsPageRoutingModule</text>
</g>
<!-- DetailsPageRoutingModule&#45;&gt;DetailsPageModule -->
<g id="edge4" class="edge">
<title>DetailsPageRoutingModule&#45;&gt;DetailsPageModule</title>
<path fill="none" stroke="black" d="M410,-122.11C410,-141.34 410,-169 410,-169 410,-169 285.47,-169 285.47,-169"/>
<polygon fill="black" stroke="black" points="285.47,-165.5 275.47,-169 285.47,-172.5 285.47,-165.5"/>
</g>
</g>
</svg>
